<svg width="792.000000pt" height="790.000000pt" viewBox="0 0 792.000000 790.000000" xmlns="http://www.w3.org/2000/svg">
  <g transform="translate(0.000000,790.000000) scale(0.100000,-0.100000)" fill="#fcfefd" stroke="none">
    <path d="M0 3950 l0 -3950 3960 0 3960 0 0 3950 0 3950 -3960 0 -3960 0 0
-3950z m4317 3811 c72 -11 169 -29 215 -40 94 -23 254 -74 373 -120 173 -67
486 -256 641 -388 117 -100 246 -227 324 -318 38 -44 92 -104 120 -134 105
-112 238 -316 345 -531 69 -138 143 -341 181 -495 35 -144 63 -347 70 -520 l7
-150 -12 -140 c-19 -212 -67 -448 -136 -658 -19 -60 -62 -164 -95 -232 -33
-68 -60 -132 -60 -142 0 -11 9 -55 20 -98 11 -43 20 -98 20 -122 l0 -43 13 0
c6 0 41 30 77 65 36 36 68 65 71 65 12 0 175 194 231 276 31 44 79 118 106
165 28 46 62 96 77 111 l26 27 47 10 47 10 42 -19 42 -19 37 -57 c20 -32 48
-85 61 -118 13 -34 28 -70 33 -81 41 -89 87 -262 117 -440 l18 -100 -1 -195
-1 -195 -26 -135 c-15 -74 -42 -183 -61 -242 -57 -177 -162 -384 -279 -548
-107 -150 -302 -353 -452 -472 -44 -34 -82 -65 -85 -69 -3 -3 -48 -35 -100
-70 -101 -67 -341 -193 -425 -223 -257 -90 -410 -128 -650 -162 l-120 -16
-167 4 -168 5 0 -177 c0 -97 -3 -259 -7 -358 l-6 -182 722 0 721 0 45 -21 c54
-25 81 -57 96 -112 l10 -39 -12 -52 -12 -51 -41 -41 -41 -42 -40 -11 -40 -11
-2097 0 -2097 0 -50 11 c-60 13 -124 57 -148 101 l-17 33 1 52 0 51 23 36 c12
20 38 49 58 64 l35 27 554 3 553 3 0 542 -1 542 -107 50 c-58 28 -153 78 -210
112 -57 35 -106 63 -108 63 -4 0 -263 181 -303 212 -118 91 -402 361 -508 482
-109 125 -148 174 -198 251 -21 33 -55 83 -76 110 -20 28 -65 97 -99 155 -85
142 -137 247 -238 483 -37 83 -109 328 -140 472 -17 77 -38 192 -48 255 l-17
115 6 183 6 182 -13 0 c-16 0 -139 65 -202 106 -28 19 -74 58 -102 88 l-50 53
-12 41 -13 40 7 34 6 34 33 32 c37 36 103 62 158 62 21 0 60 -5 88 -11 l50
-10 92 -60 c92 -59 119 -69 119 -48 0 14 -26 36 -57 49 -13 5 -23 16 -23 24 0
8 -7 19 -16 24 l-17 9 37 7 36 7 0 14 0 15 -65 0 -66 0 -49 25 -50 25 -25 39
c-32 48 -40 95 -25 149 l11 43 35 39 c20 21 50 43 67 49 l32 10 592 3 c326 2
593 5 593 8 -1 15 -49 160 -63 186 -34 67 -108 120 -224 164 l-58 22 -552 1
-551 2 -25 24 -25 23 12 42 c7 24 32 70 54 103 l41 60 47 32 c26 17 72 41 103
53 l56 23 313 3 312 3 16 32 c33 65 181 285 250 372 39 50 134 151 210 227
286 281 459 410 744 556 l155 78 155 52 c170 56 353 96 530 117 l115 14 195
-4 195 -4 132 -20z" />
    <path d="M3600 5948 l0 -15 73 -5 72 -5 77 -39 c42 -21 77 -44 78 -50 0 -11
22 -24 41 -24 5 0 9 7 9 15 l0 15 -25 6 c-14 3 -25 10 -25 16 0 11 -51 57 -65
58 -5 0 -23 7 -40 16 l-30 15 -82 6 -83 6 0 -15z" />
    <path d="M3500 5936 c-19 -6 -46 -19 -60 -28 -13 -10 -35 -18 -47 -18 l-23 0
0 -15 c0 -8 -7 -15 -15 -15 l-15 0 0 -22 c0 -12 -8 -31 -18 -42 -23 -25 -42
-90 -42 -140 l0 -36 15 0 15 0 0 33 c0 39 29 104 67 152 31 39 98 85 156 106
20 7 37 19 37 26 0 15 -22 15 -70 -1z" />
    <path d="M3940 5785 c0 -8 4 -15 9 -15 5 0 12 -11 15 -25 l6 -25 15 0 c19 0
19 24 0 44 -8 8 -15 19 -15 25 0 6 -7 11 -15 11 -8 0 -15 -7 -15 -15z" />
    <path d="M3990 5675 c0 -8 7 -15 15 -15 8 0 15 7 15 15 0 8 -7 15 -15 15 -8 0
-15 -7 -15 -15z" />
    <path d="M4000 5595 l0 -25 15 0 15 0 0 25 0 25 -15 0 -15 0 0 -25z" />
    <path d="M3270 5585 l0 -25 15 0 15 0 0 25 0 25 -15 0 -15 0 0 -25z" />
    <path d="M3280 5521 c0 -39 32 -111 64 -146 14 -15 26 -32 26 -36 0 -12 80
-69 97 -69 7 0 13 7 13 15 0 8 -4 15 -8 15 -5 0 -30 20 -55 44 -51 48 -107
143 -107 182 l0 24 -15 0 -15 0 0 -29z" />
    <path d="M3990 5505 l0 -25 14 0 c13 0 26 20 26 41 0 5 -9 9 -20 9 l-20 0 0
-25z" />
    <path d="M3958 5429 c-22 -37 -23 -49 -3 -49 14 0 45 48 45 70 0 21 -26 9 -42
-21z" />
    <path d="M2566 5423 c-2 -10 -7 -33 -11 -50 l-7 -33 16 0 15 0 10 38 c6 20 11
43 11 50 0 19 -28 14 -34 -5z" />
    <path d="M3856 5315 c-15 -14 -34 -25 -42 -25 -7 0 -14 -7 -14 -15 0 -8 4 -15
9 -15 20 0 61 20 81 40 42 42 11 57 -34 15z" />
    <path d="M3490 5265 c0 -8 7 -15 15 -15 8 0 15 7 15 15 0 8 -7 15 -15 15 -8 0
-15 -7 -15 -15z" />
    <path d="M3745 5260 c-11 -5 -35 -9 -52 -9 l-33 -1 0 -15 0 -15 34 0 c18 0 48
3 65 6 l31 7 0 18 c0 20 -13 23 -45 9z" />
    <path d="M3530 5245 l0 -15 20 0 20 0 0 15 0 15 -20 0 -20 0 0 -15z" />
    <path d="M3600 5235 l0 -15 25 0 25 0 0 15 0 15 -25 0 -25 0 0 -15z" />
    <path d="M1190 5135 l0 -84 18 -10 c9 -5 58 -19 107 -31 l90 -23 125 -1 125 0
58 13 c93 21 177 59 255 117 l72 54 0 25 0 25 -425 0 -425 0 0 -85z" />
    <path d="M4970 4975 l0 -15 20 0 20 0 0 15 0 15 -20 0 -20 0 0 -15z" />
    <path d="M4865 4970 c-11 -5 -31 -9 -44 -9 -27 -1 -131 -49 -131 -61 0 -4 -12
-10 -27 -13 -41 -9 -140 -95 -203 -176 -74 -96 -170 -262 -170 -296 0 -32 27
-13 46 33 29 67 123 206 189 280 32 34 77 76 100 92 24 17 50 36 57 44 18 17
199 86 228 86 l20 0 0 15 0 15 -22 -1 c-13 0 -32 -4 -43 -9z" />
    <path d="M3625 4303 c-45 -6 -182 -51 -253 -84 -35 -16 -95 -54 -135 -83 -40
-30 -82 -57 -94 -61 l-23 -6 0 -18 c0 -9 -18 -35 -41 -56 -61 -59 -152 -183
-203 -277 -44 -81 -106 -250 -106 -289 0 -10 6 -19 13 -19 l13 0 24 82 c28 98
98 238 166 334 27 38 91 112 144 165 l95 96 79 51 c124 80 313 141 439 142
l57 0 0 15 0 15 -72 -1 c-40 -1 -86 -4 -103 -6z" />
    <path d="M3810 4285 l0 -15 20 0 20 0 0 15 0 15 -20 0 -20 0 0 -15z" />
    <path d="M2751 3343 c-6 -21 -11 -48 -11 -60 l0 -23 14 0 13 0 6 38 c3 20 9
47 13 60 l6 22 -15 0 -16 0 -10 -37z" />
    <path d="M2726 3145 c-4 -58 -5 -109 -1 -115 3 -5 12 -10 19 -10 l12 0 3 115
2 115 -14 0 -14 0 -7 -105z" />
    <path d="M2650 3048 c1 -18 25 -48 38 -48 6 0 14 10 17 21 l7 21 -13 9 c-21
13 -49 11 -49 -3z" />
    <path d="M2726 2994 c-15 -40 4 -114 31 -114 l13 0 0 25 c0 14 -4 25 -9 25
l-9 0 5 40 6 40 -16 0 c-8 0 -18 -7 -21 -16z" />
    <path d="M3420 945 l0 -455 523 0 522 0 0 364 0 364 -95 16 c-52 8 -144 20
-205 26 -165 17 -383 56 -560 100 -86 22 -164 40 -171 40 l-14 0 0 -455z" />
  </g>
  <g transform="translate(0.000000,790.000000) scale(0.100000,-0.100000)" fill="#342715" stroke="none">
    <path d="M3670 7785 c-177 -21 -360 -61 -530 -117 l-155 -52 -155 -78 c-285
-146 -458 -275 -744 -556 -76 -76 -171 -177 -210 -227 -69 -87 -217 -307 -250
-372 l-16 -32 -312 -3 -313 -3 -56 -23 c-31 -12 -77 -36 -104 -54 l-47 -31
-43 -66 c-24 -36 -49 -86 -55 -110 l-12 -44 26 -26 26 -26 553 -2 552 -1 58
-22 c116 -43 190 -97 224 -164 9 -17 26 -62 38 -101 l21 -70 -590 -3 -591 -3
-32 -10 c-17 -6 -47 -28 -67 -49 l-35 -39 -11 -43 c-7 -23 -10 -62 -7 -86 l5
-42 26 -40 26 -40 50 -25 50 -25 83 0 c45 1 279 3 520 6 l437 5 0 -15 c0 -23
-136 -120 -207 -149 -95 -38 -167 -51 -288 -50 -115 0 -187 12 -288 45 -33 11
-68 20 -79 21 -10 1 -18 5 -18 10 0 4 -4 5 -10 2 -5 -3 -22 7 -37 22 -14 15
-23 22 -19 15 l8 -13 -20 12 c-12 7 -18 17 -16 21 3 5 2 8 -3 7 -4 -1 -14 -1
-21 0 l-13 1 7 13 c4 6 4 9 0 5 -4 -3 -28 3 -53 14 l-45 20 -72 5 -73 6 -50
-17 -50 -16 -32 -34 -33 -34 -5 -45 -5 -45 12 -38 13 -38 50 -53 c27 -29 73
-68 101 -87 62 -41 186 -106 202 -106 l11 0 -5 -182 -5 -183 17 -115 c10 -63
31 -178 48 -255 31 -144 103 -389 140 -472 101 -236 153 -341 238 -483 34 -58
79 -127 99 -155 21 -27 55 -77 76 -110 50 -77 89 -126 198 -251 106 -121 390
-391 508 -482 40 -31 299 -212 303 -212 2 0 51 -28 108 -63 57 -34 152 -84
210 -112 l107 -50 1 -532 0 -532 -553 -3 -554 -3 -35 -27 c-20 -15 -46 -44
-59 -64 l-23 -37 0 -61 0 -61 17 -33 c24 -45 88 -88 148 -101 l50 -11 2107 0
2107 0 38 11 c21 6 56 26 78 46 l39 35 16 55 16 55 -7 43 c-8 59 -41 104 -95
131 l-45 23 -724 1 -724 0 6 167 c4 91 7 248 7 347 l0 181 168 -3 167 -4 120
16 c239 33 393 71 650 162 84 30 324 156 425 223 52 35 97 67 100 70 3 4 41
35 85 69 150 119 345 322 452 472 117 164 222 371 279 548 19 59 46 168 61
242 l26 135 1 205 1 205 -18 100 c-30 178 -76 351 -117 440 -5 11 -20 47 -33
81 -13 33 -41 86 -61 118 l-37 57 -45 20 -45 20 -54 -11 -53 -11 -27 -27 c-15
-15 -49 -65 -77 -111 -27 -47 -75 -121 -106 -165 -56 -82 -215 -272 -232 -278
-5 -2 -39 -32 -75 -67 l-65 -64 0 44 c0 24 -10 82 -21 130 l-21 86 61 126 c34
69 77 174 96 234 69 210 117 446 136 658 l12 140 -7 160 c-7 180 -33 382 -70
530 -38 154 -112 357 -181 495 -107 215 -240 419 -345 531 -28 30 -82 90 -120
134 -78 91 -207 218 -324 318 -155 132 -468 321 -641 388 -119 46 -279 97
-373 120 -46 11 -143 29 -215 40 l-132 20 -205 4 -205 4 -115 -14z m521 -406
c339 -34 622 -142 945 -360 110 -74 236 -183 359 -310 152 -156 271 -318 400
-539 27 -47 52 -87 56 -90 15 -11 88 -190 122 -300 45 -144 52 -173 79 -345
l22 -140 0 -150 -1 -150 -17 -124 c-9 -68 -35 -198 -58 -288 l-41 -164 -26 39
c-40 61 -244 254 -340 323 -47 34 -126 81 -176 105 l-90 44 -100 25 -100 26
-135 -2 c-74 -1 -145 -6 -158 -10 -12 -5 -36 -10 -53 -11 -17 -1 -33 -6 -35
-10 -3 -4 -11 -5 -19 -1 -8 3 -15 1 -15 -5 0 -9 -40 -25 -65 -26 -5 -1 -13 -5
-16 -9 -5 -7 -27 -14 -53 -16 -5 -1 -6 -4 -3 -8 10 -9 -54 -53 -67 -46 -6 3
-8 3 -4 -2 9 -9 -42 -51 -57 -47 -5 2 -7 0 -3 -4 8 -8 -61 -89 -76 -89 -5 0
-10 -9 -12 -20 -2 -11 -13 -28 -25 -37 -11 -10 -18 -18 -15 -18 4 0 -1 -13
-10 -29 l-18 -30 -10 6 c-6 3 -8 3 -4 -2 8 -8 -27 -74 -45 -86 -5 -3 -8 -9 -8
-13 3 -22 -1 -36 -13 -48 -18 -19 -61 -160 -81 -273 l-17 -90 5 -215 5 -215
36 -133 c40 -151 93 -277 170 -407 77 -128 162 -233 293 -362 177 -174 378
-317 535 -380 l62 -25 92 4 92 4 36 27 c40 31 71 84 81 137 l6 35 -14 65 c-8
36 -18 74 -21 85 l-5 20 98 47 c138 67 285 172 382 274 l56 60 91 11 90 11 74
35 c115 53 284 181 444 338 l101 98 11 -49 c6 -28 15 -98 18 -157 l6 -108 -11
-95 c-31 -246 -116 -469 -269 -700 l-56 -85 -151 -151 c-82 -82 -177 -171
-210 -196 -33 -25 -103 -72 -155 -103 -208 -126 -426 -212 -671 -263 l-144
-31 -144 -11 -145 -12 -145 12 c-169 13 -303 38 -428 79 -87 28 -361 158 -392
185 -9 8 -41 27 -71 44 -68 39 -126 93 -169 161 l-34 52 20 22 c11 12 26 32
32 44 14 28 14 131 -1 174 -26 77 -93 131 -202 165 -28 8 -97 19 -153 23
l-102 8 -20 24 c-11 13 -41 65 -66 114 l-46 90 -20 100 -21 100 0 90 c-1 50 5
117 11 150 7 33 31 106 52 161 l40 102 48 68 c53 77 151 172 226 222 50 33 66
39 195 67 l75 16 40 27 c22 15 53 47 69 70 l30 43 4 67 4 67 -38 57 -37 57
-26 7 c-14 4 -31 6 -38 5 -6 -1 -14 2 -17 7 -11 18 -205 -4 -287 -33 -23 -8
-45 -12 -50 -9 -5 3 -9 0 -9 -5 0 -6 -6 -11 -13 -11 -7 0 -47 -18 -89 -39 -42
-22 -80 -36 -84 -33 -4 4 -4 1 0 -5 l7 -13 -10 -1 c-6 -1 -15 -2 -20 -3 -5 0
-13 -5 -18 -10 l-8 -9 15 7 c8 4 2 -3 -15 -15 -16 -12 -69 -61 -117 -109 -48
-48 -90 -84 -94 -81 -3 3 -4 2 -2 -4 3 -12 -27 -57 -34 -50 -2 3 -5 -1 -5 -7
0 -7 -17 -37 -37 -67 -20 -29 -36 -57 -36 -63 l0 -9 -12 7 c-7 4 -10 4 -6 0 3
-4 -9 -40 -27 -79 -18 -40 -39 -91 -46 -114 -6 -24 -16 -43 -21 -43 -5 0 -6
-5 -3 -11 4 -6 0 -30 -10 -55 -9 -24 -14 -48 -10 -54 3 -5 3 -10 -2 -10 -4 0
-9 -19 -11 -41 -1 -23 -6 -49 -10 -58 -7 -15 -6 -285 1 -366 10 -120 101 -340
195 -471 28 -39 81 -105 119 -146 37 -41 87 -96 110 -121 l43 -47 49 0 49 0
45 -33 c24 -17 71 -53 102 -79 32 -25 130 -86 219 -134 174 -93 256 -146 240
-151 -26 -9 -399 99 -579 167 -196 74 -390 181 -619 338 -199 137 -469 383
-626 573 -50 59 -94 109 -98 111 -16 6 -110 138 -181 251 -90 146 -218 410
-264 547 -53 155 -103 360 -121 489 -9 63 -19 173 -23 246 l-6 132 174 6 174
5 75 20 c140 39 274 98 381 168 38 25 98 78 135 117 l65 72 75 150 74 150 3
52 c1 29 5 53 9 53 4 0 5 6 2 14 -3 7 4 40 15 73 l20 59 -10 68 c-13 95 -53
249 -84 325 -15 36 -40 85 -57 109 -49 72 -156 179 -240 242 l-78 58 32 61
c17 34 73 116 124 184 l92 122 103 100 c170 164 309 267 499 368 215 114 446
190 685 226 l130 19 141 1 c78 1 188 -4 245 -10z m1039 -2865 c99 -31 219
-100 327 -188 l88 -72 68 -84 67 -84 40 -83 c22 -46 47 -111 56 -146 l17 -62
0 -85 1 -85 -22 -56 c-32 -80 -74 -140 -161 -227 l-77 -77 -64 -38 c-82 -47
-206 -88 -291 -94 -88 -7 -190 11 -264 47 -71 34 -161 112 -217 187 -54 74
-114 197 -138 285 -10 40 -24 118 -29 173 l-10 100 9 71 c20 155 65 274 144
379 l53 71 56 38 56 39 53 13 53 13 55 -6 c30 -3 89 -16 130 -29z m-1635
-3164 c177 -44 395 -83 560 -100 61 -6 153 -18 205 -26 l95 -16 0 -354 0 -354
-512 0 -513 0 0 445 c0 245 2 445 4 445 2 0 75 -18 161 -40z" />
    <path d="M3565 5937 c-8 -4 -20 -5 -25 -2 -6 3 -10 1 -10 -5 l0 -12 -16 6 c-8
3 -13 2 -10 -2 2 -4 -14 -16 -37 -27 -23 -11 -57 -36 -76 -55 -19 -19 -31 -28
-26 -20 l8 15 -9 -8 c-5 -5 -9 -12 -10 -15 0 -4 -13 -34 -29 -67 l-28 -59 -1
-91 -1 -90 22 -47 c12 -25 18 -50 15 -54 -4 -4 -1 -4 6 0 l12 7 1 -13 c1 -7 1
-16 1 -20 -1 -3 6 -12 15 -20 l17 -13 -9 15 c-5 8 12 -6 38 -33 26 -26 47 -44
47 -40 0 5 4 3 8 -4 4 -6 14 -13 22 -15 8 -2 20 -8 28 -15 7 -7 19 -10 26 -7
8 3 17 1 20 -5 l7 -10 77 4 c42 3 85 8 94 11 9 2 27 7 39 9 12 3 26 10 31 17
4 7 8 10 8 5 0 -11 50 23 97 67 23 21 40 43 37 48 -3 4 2 11 10 14 9 3 13 10
10 15 -3 5 0 9 6 9 6 0 9 4 6 9 -4 5 -2 11 3 13 5 1 10 17 12 33 2 17 6 35 10
40 8 11 5 105 -5 165 -3 19 -10 36 -16 38 -6 2 -8 8 -4 13 3 5 0 9 -6 9 -6 0
-9 4 -5 9 3 6 -3 14 -12 20 -10 6 -14 11 -10 11 12 0 -44 70 -57 70 -6 0 -17
9 -24 20 l-12 19 -14 -5 -13 -5 -6 15 -6 16 -16 -6 c-8 -3 -15 -2 -15 3 0 5
-6 10 -12 11 -14 1 -53 10 -53 12 0 0 -33 2 -73 3 -39 2 -79 -1 -87 -6z m300
-57 c3 -5 4 -10 1 -10 -3 0 -8 5 -11 10 -3 6 -4 10 -1 10 3 0 8 -4 11 -10z" />
    <path d="M3425 5300 c3 -5 8 -10 11 -10 3 0 2 5 -1 10 -3 6 -8 10 -11 10 -3 0
-2 -4 1 -10z" />
    <path d="M3099 4003 l-24 -28 28 24 c25 23 32 31 24 31 -2 0 -14 -12 -28 -27z" />
  </g>
  <g transform="translate(0.000000,790.000000) scale(0.100000,-0.100000)" fill="#04c1fb" stroke="none">
    <path d="M3665 7379 c-239 -36 -470 -112 -685 -226 -190 -101 -329 -204 -499
-368 -145 -140 -327 -386 -345 -465 l-6 -25 76 -54 c81 -59 191 -170 241 -242
17 -25 43 -74 58 -110 31 -75 85 -289 85 -336 l0 -33 14 0 14 0 7 33 c11 49
99 231 149 306 24 36 69 95 101 131 61 70 176 175 240 220 80 55 232 130 337
165 l106 35 114 16 113 15 60 -6 c123 -12 262 -38 330 -62 128 -46 264 -122
375 -208 14 -11 68 -63 120 -115 l96 -95 58 -87 c65 -98 138 -258 166 -365 10
-40 24 -109 31 -153 l11 -81 -6 -112 c-3 -62 -9 -129 -12 -149 l-6 -38 105 0
104 0 99 -25 99 -25 90 -44 c50 -24 129 -72 178 -106 103 -74 327 -292 348
-338 7 -18 18 -31 24 -29 16 5 93 321 111 457 l17 125 1 160 1 160 -23 140
c-28 173 -34 201 -79 345 -34 110 -107 289 -122 300 -4 3 -29 43 -56 90 -65
112 -154 247 -229 345 -76 101 -255 286 -369 381 -222 187 -507 344 -747 413
-213 61 -372 82 -614 80 l-151 -1 -130 -19z" />
    <path d="M3876 5858 c3 -4 9 -8 15 -8 5 0 9 4 9 8 0 5 -7 9 -15 9 -8 0 -12 -4
-9 -9z" />
    <path d="M3920 5821 c0 -5 5 -13 10 -16 6 -3 10 -2 10 4 0 5 -4 13 -10 16 -5
3 -10 2 -10 -4z" />
    <path d="M2478 5122 l-77 -157 -65 -72 c-36 -39 -97 -92 -135 -117 -107 -70
-241 -129 -381 -168 l-75 -20 -174 -5 -174 -6 6 -141 c4 -77 14 -193 22 -256
19 -130 69 -335 122 -490 46 -137 174 -401 264 -547 71 -113 165 -245 181
-251 4 -2 48 -52 98 -111 157 -190 427 -436 626 -573 138 -95 316 -202 419
-252 117 -56 256 -110 415 -160 128 -40 440 -119 446 -113 9 8 -151 110 -302
192 -89 47 -187 108 -219 133 -31 26 -78 62 -102 79 l-45 33 -49 0 -49 0 -43
47 c-23 25 -73 80 -110 121 -149 163 -250 342 -297 529 l-10 42 -71 105 c-128
193 -263 479 -324 691 -14 50 -35 149 -46 220 l-21 130 5 180 4 180 17 90 c9
50 30 133 47 185 35 108 128 305 189 399 l41 63 -23 89 c-12 49 -25 89 -28 89
-3 -1 -40 -71 -82 -158z" />
    <path d="M4982 4546 l-53 -13 -56 -39 -56 -38 -53 -71 c-54 -72 -101 -170
-123 -258 -6 -27 -16 -83 -21 -125 l-10 -77 10 -105 c13 -132 39 -229 89 -329
50 -101 104 -174 178 -240 72 -65 157 -107 247 -122 l68 -11 77 5 76 5 80 26
c44 14 109 42 145 63 l64 38 77 77 c87 87 129 147 161 227 l22 56 -1 95 0 95
-17 62 c-9 35 -34 100 -56 146 l-40 83 -67 84 -68 84 -88 72 c-159 129 -322
205 -467 218 l-65 5 -53 -13z" />
    <path d="M4343 4505 c0 -8 4 -12 9 -9 4 3 8 9 8 15 0 5 -4 9 -8 9 -5 0 -9 -7
-9 -15z" />
    <path d="M4235 4387 c-11 -8 -49 -22 -85 -31 -108 -30 -270 -88 -265 -96 2 -4
21 -31 41 -61 l36 -54 -4 -58 -4 -57 -30 -42 c-16 -23 -47 -55 -69 -70 l-40
-27 -75 -16 c-129 -28 -145 -34 -195 -67 -75 -50 -173 -145 -226 -222 l-48
-68 -40 -102 c-21 -55 -45 -128 -52 -161 -7 -33 -12 -105 -12 -160 l1 -100 21
-100 20 -100 46 -90 c25 -49 55 -101 66 -114 l20 -24 102 -8 c56 -4 125 -15
153 -23 146 -45 214 -124 214 -248 0 -54 -10 -80 -47 -120 l-25 -26 43 -63
c52 -78 97 -120 169 -160 30 -17 62 -37 71 -45 31 -27 305 -157 392 -185 127
-41 260 -66 433 -80 l150 -12 150 12 149 12 144 31 c245 51 463 137 671 263
52 31 122 78 155 103 33 25 128 114 210 196 l151 151 56 85 c153 231 238 454
269 700 l11 95 -6 120 c-5 104 -14 160 -32 214 l-4 13 -108 -105 c-165 -162
-333 -290 -450 -344 l-74 -35 -90 -11 -91 -11 -56 -60 c-52 -54 -81 -79 -210
-176 -25 -18 -98 -61 -161 -94 -63 -32 -114 -64 -113 -70 1 -6 9 -31 18 -56 9
-25 17 -70 18 -100 l1 -55 -22 -42 c-12 -23 -38 -54 -58 -69 l-36 -28 -82 -4
-82 -4 -62 25 c-157 63 -358 206 -535 380 -131 129 -216 234 -293 362 -77 130
-130 256 -170 407 l-36 133 -5 205 -5 205 16 90 c10 50 28 126 42 171 13 44
24 83 24 87 0 12 -45 8 -65 -6z" />
    <path d="M2915 3760 c3 -5 8 -10 11 -10 3 0 2 5 -1 10 -3 6 -8 10 -11 10 -3 0
-2 -4 1 -10z" />
  </g>
  <g transform="translate(0.000000,790.000000) scale(0.100000,-0.100000)" fill="#aaf9fb" stroke="none">
    <path d="M3788 7793 c6 -2 18 -2 25 0 6 3 1 5 -13 5 -14 0 -19 -2 -12 -5z" />
    <path d="M4068 7793 c6 -2 18 -2 25 0 6 3 1 5 -13 5 -14 0 -19 -2 -12 -5z" />
    <path d="M3683 7783 c4 -3 10 -3 14 0 3 4 0 7 -7 7 -7 0 -10 -3 -7 -7z" />
    <path d="M4203 7783 c4 -3 10 -3 14 0 3 4 0 7 -7 7 -7 0 -10 -3 -7 -7z" />
    <path d="M3583 7773 c4 -3 10 -3 14 0 3 4 0 7 -7 7 -7 0 -10 -3 -7 -7z" />
    <path d="M3373 7733 c4 -3 10 -3 14 0 3 4 0 7 -7 7 -7 0 -10 -3 -7 -7z" />
    <path d="M5204 7468 l-7 -11 11 7 c7 4 12 9 12 12 0 8 -9 4 -16 -8z" />
    <path d="M3868 7393 c6 -2 18 -2 25 0 6 3 1 5 -13 5 -14 0 -19 -2 -12 -5z" />
    <path d="M3978 7393 c28 -2 76 -2 105 0 28 2 5 3 -53 3 -58 0 -81 -1 -52 -3z" />
    <path d="M3743 7383 c9 -2 23 -2 30 0 6 3 -1 5 -18 5 l-30 0 18 -5z" />
    <path d="M4198 7383 c7 -3 16 -2 19 1 4 3 -2 6 -13 5 l-19 -1 13 -5z" />
    <path d="M5364 7368 l-7 -11 11 7 c12 7 16 16 8 16 -3 0 -8 -5 -12 -12z" />
    <path d="M5505 7260 c3 -5 8 -10 11 -10 3 0 2 5 -1 10 -3 6 -8 10 -11 10 -3 0
-2 -4 1 -10z" />
    <path d="M4763 7233 c4 -3 10 -3 14 0 3 4 0 7 -7 7 -7 0 -10 -3 -7 -7z" />
    <path d="M2304 7188 l-7 -11 11 7 c7 4 12 9 12 12 0 8 -9 4 -16 -8z" />
    <path d="M5095 7050 c3 -5 8 -10 11 -10 3 0 2 5 -1 10 -3 6 -8 10 -11 10 -3 0
-2 -4 1 -10z" />
    <path d="M5145 7023 c6 -5 30 -24 55 -42 l45 -33 -35 32 c-31 27 -91 68 -65
43z" />
    <path d="M5835 6950 c3 -5 8 -10 11 -10 3 0 2 5 -1 10 -3 6 -8 10 -11 10 -3 0
-2 -4 1 -10z" />
    <path d="M2001 6900 c-13 -11 -19 -20 -14 -20 6 0 18 9 28 20 23 25 17 25 -14
0z" />
    <path d="M5880 6896 c0 -2 8 -10 18 -17 l17 -14 -14 18 c-13 16 -21 21 -21 13z" />
    <path d="M2574 6868 l-7 -11 11 7 c7 4 12 9 12 12 0 8 -9 4 -16 -8z" />
    <path d="M1924 6818 l-19 -23 23 19 c21 18 27 26 19 26 -2 0 -12 -10 -23 -22z" />
    <path d="M5470 6745 c52 -55 99 -104 104 -110 5 -5 0 4 -12 20 -11 17 -58 66
-104 110 l-83 80 95 -100z" />
    <path d="M6055 6700 c3 -5 8 -10 11 -10 3 0 2 5 -1 10 -3 6 -8 10 -11 10 -3 0
-2 -4 1 -10z" />
    <path d="M1804 6668 l-7 -11 11 7 c12 7 16 16 8 16 -3 0 -8 -5 -12 -12z" />
    <path d="M6085 6660 c3 -5 8 -10 11 -10 3 0 2 5 -1 10 -3 6 -8 10 -11 10 -3 0
-2 -4 1 -10z" />
    <path d="M5590 6616 c0 -2 8 -10 18 -17 l17 -14 -14 18 c-13 16 -21 21 -21 13z" />
    <path d="M5631 6563 c7 -12 15 -20 18 -17 3 2 -3 12 -13 22 l-18 17 13 -22z" />
    <path d="M5671 6513 c7 -12 15 -20 18 -17 3 2 -3 12 -13 22 l-18 17 13 -22z" />
    <path d="M5705 6470 c3 -5 8 -10 11 -10 3 0 2 5 -1 10 -3 6 -8 10 -11 10 -3 0
-2 -4 1 -10z" />
    <path d="M3648 6435 c-125 -18 -287 -72 -408 -137 -117 -62 -155 -89 -247
-169 -88 -78 -170 -172 -229 -260 -50 -75 -137 -255 -150 -309 l-8 -35 -7 40
-6 40 -1 -60 c0 -33 -5 -74 -10 -91 -5 -17 -8 -43 -5 -58 l5 -26 -11 0 c-6 0
-10 -3 -9 -7 1 -5 -2 -24 -6 -43 l-7 -35 25 -89 24 -89 -40 -61 c-59 -92 -152
-289 -187 -396 -17 -52 -38 -133 -47 -180 l-16 -85 -5 -195 -5 -195 21 -130
c11 -71 32 -170 46 -220 62 -214 194 -495 326 -694 41 -61 75 -107 77 -102 2
5 -4 23 -13 40 l-16 31 11 0 c16 0 12 28 -6 38 l-15 8 12 28 12 27 -11 11
c-13 13 -17 92 -4 85 4 -3 6 24 5 59 l-2 64 10 0 10 0 -7 36 -7 37 13 -8 13
-8 -7 27 c-3 14 -3 26 2 26 10 0 13 19 13 68 0 18 4 30 9 27 4 -3 6 4 3 15
l-5 20 10 0 10 0 -6 22 -5 21 10 -6 11 -7 -6 22 -5 21 10 -6 11 -7 -6 22 -5
21 11 -7 12 -7 -7 17 -6 17 13 -8 13 -8 -7 12 c-9 15 3 53 15 46 l9 -6 -7 17
-6 17 11 -7 12 -7 -7 17 -6 17 13 -8 13 -8 -7 11 c-8 14 18 55 28 45 4 -4 4
-1 1 8 -3 8 2 23 11 34 8 11 12 14 8 6 l-7 -14 11 7 c6 4 9 13 6 20 -3 8 0 17
7 22 l12 7 -8 -14 -8 -14 9 8 c5 5 9 16 9 25 l0 17 13 -3 c8 -1 11 2 8 7 -3 5
2 17 12 28 9 10 13 12 7 3 l-10 -15 17 14 c10 7 15 17 13 22 -3 4 9 23 26 41
17 18 25 24 18 13 l-14 -20 17 14 c10 7 16 17 13 21 -5 8 49 62 56 55 3 -3 19
10 35 27 16 18 19 25 7 15 l-21 -18 -8 13 c-4 7 -4 10 1 6 4 -4 19 1 33 12 13
11 28 17 32 15 5 -3 12 0 16 6 l7 12 -14 -8 -14 -8 10 10 c29 28 69 52 78 46
l10 -6 -7 11 -7 11 21 11 c11 6 26 8 32 4 l11 -7 -8 13 -8 13 17 -6 17 -7 -5
9 c-8 12 70 45 88 38 l16 -6 0 10 0 11 16 -6 15 -6 -7 12 -7 11 21 -5 22 -6
-6 10 -7 11 29 -7 29 -7 -14 10 -15 9 37 7 c20 4 49 4 64 1 l28 -7 -15 10 -15
10 65 0 c36 -1 70 -5 77 -11 7 -5 17 -7 23 -3 5 3 17 -1 26 -9 8 -9 24 -16 34
-16 10 0 62 15 117 34 54 19 127 42 163 52 36 9 74 23 85 31 11 7 25 13 32 13
l12 0 -5 -17 -6 -18 13 19 c6 11 13 29 14 40 4 36 5 37 17 30 l11 -7 -6 16 -6
15 15 6 c9 3 14 12 11 19 -2 6 3 18 12 25 l16 13 -14 -7 -14 -7 18 31 c10 17
23 28 28 25 l10 -6 -7 11 -7 11 23 23 c12 12 23 29 23 38 0 8 6 14 13 12 8 -1
11 1 8 6 -2 4 6 21 20 38 14 16 22 22 18 14 l-7 -15 21 19 c12 10 19 23 16 28
-8 12 33 51 45 44 5 -3 15 2 22 12 l14 17 -20 -14 c-11 -8 -2 3 20 23 22 20
52 40 67 43 15 3 29 12 32 20 l6 15 15 -6 15 -5 0 10 0 11 16 -6 15 -6 -7 12
-7 11 17 -6 17 -7 -6 9 c-3 5 0 13 6 17 6 3 15 1 19 -6 l8 -12 6 10 c4 6 13 9
21 5 8 -3 15 -1 15 5 l0 10 22 -6 21 -5 -6 10 -7 11 43 0 c23 1 51 2 63 3 l21
1 11 63 c25 132 10 352 -34 504 -28 96 -101 251 -160 339 l-58 87 -96 95 c-52
52 -106 104 -120 115 -107 83 -234 154 -360 202 -82 31 -237 60 -360 67 l-95
5 -97 -14z m62 -496 l0 -11 15 5 c8 4 17 2 20 -3 4 -6 12 -10 18 -10 l12 0
-15 10 -15 10 13 0 c7 0 15 -6 18 -14 3 -8 12 -12 19 -10 7 3 16 0 20 -5 3 -6
10 -9 15 -6 5 3 18 -7 29 -21 12 -15 21 -24 21 -20 0 4 11 -4 23 -18 13 -14
27 -23 31 -19 4 4 4 0 0 -10 l-6 -17 16 -6 c9 -3 13 -10 10 -15 -3 -5 2 -12
10 -15 9 -3 13 -10 10 -15 -3 -5 0 -9 6 -9 6 0 9 -4 6 -8 -3 -5 1 -20 9 -35 7
-14 11 -28 8 -31 -3 -2 0 -20 6 -38 l11 -33 -10 -35 -10 -35 11 -4 10 -3 -15
-12 c-9 -6 -17 -23 -18 -38 -1 -16 -7 -28 -12 -28 -5 0 -6 -3 -3 -7 4 -3 -1
-12 -11 -20 l-17 -14 15 7 c8 4 -4 -10 -28 -30 l-42 -38 6 -10 7 -11 -11 7
c-7 4 -12 3 -12 -2 0 -5 -9 -12 -21 -15 l-21 -6 7 -10 6 -11 -15 6 -16 6 0
-11 c0 -6 -3 -10 -7 -10 -21 3 -33 -2 -33 -15 l0 -14 -37 -6 c-21 -3 -65 -3
-98 0 -33 3 -69 6 -80 6 -11 1 -22 5 -25 9 -3 4 -12 9 -20 11 -8 2 -21 9 -28
16 -8 7 -18 10 -23 7 -5 -4 -9 -1 -9 5 0 6 -4 9 -9 5 -12 -7 -89 71 -125 126
l-16 26 6 18 7 18 -11 -7 c-7 -4 -13 -4 -13 1 -1 4 -2 53 -4 108 -3 104 2 148
15 140 4 -2 5 6 3 18 l-5 23 18 15 c9 8 19 13 21 12 1 -2 2 -1 1 0 -2 2 4 12
12 22 8 11 10 16 4 12 l-11 -6 0 14 0 14 18 -10 18 -9 8 12 c4 7 8 18 8 23 0
6 8 9 18 9 l17 -2 -7 11 -6 10 17 -6 17 -7 -5 9 c-9 14 19 31 53 34 17 1 31 6
31 10 0 5 9 6 20 2 11 -3 28 -2 37 4 10 6 39 11 66 11 l47 0 0 -11z m-310 -83
c0 -3 -5 -8 -12 -12 l-11 -7 7 11 c7 12 16 16 16 8z m-113 -278 l-5 -13 -1 19
c-1 11 2 17 5 13 3 -3 4 -12 1 -19z m-700 -165 c-4 -3 -7 0 -7 7 0 7 3 10 7 7
3 -4 3 -10 0 -14z m1933 -667 c0 -3 -4 -8 -10 -11 -5 -3 -10 -1 -10 4 0 6 5
11 10 11 6 0 10 -2 10 -4z m-1360 -700 c0 -3 -5 -8 -12 -12 l-11 -7 7 11 c7
12 16 16 16 8z m-480 -1007 c0 -5 4 -7 10 -4 l10 6 -6 -16 c-4 -9 -7 -15 -8
-13 -1 2 -8 11 -15 21 l-13 17 11 0 c6 0 11 -5 11 -11z" />
    <path d="M3300 5690 c0 -7 3 -10 7 -7 3 4 3 10 0 14 -4 3 -7 0 -7 -7z" />
    <path d="M3300 5500 c0 -7 3 -10 7 -7 3 4 3 10 0 14 -4 3 -7 0 -7 -7z" />
    <path d="M3390 5346 c0 -2 8 -10 18 -17 l17 -14 -14 18 c-13 16 -21 21 -21 13z" />
    <path d="M3753 5253 c4 -3 10 -3 14 0 3 4 0 7 -7 7 -7 0 -10 -3 -7 -7z" />
    <path d="M3718 5243 c7 -3 16 -2 19 1 4 3 -2 6 -13 5 l-19 -1 13 -5z" />
    <path d="M5725 6440 c3 -5 8 -10 11 -10 3 0 2 5 -1 10 -3 6 -8 10 -11 10 -3 0
-2 -4 1 -10z" />
    <path d="M5770 6380 c6 -11 13 -20 16 -20 2 0 0 9 -6 20 -6 11 -13 20 -16 20
-2 0 0 -9 6 -20z" />
    <path d="M1028 6343 c7 -3 16 -2 19 1 4 3 -2 6 -13 5 l-19 -1 13 -5z" />
    <path d="M774 6228 l-19 -23 23 19 c21 18 27 26 19 26 -2 0 -12 -10 -23 -22z" />
    <path d="M2265 6200 c10 -11 20 -20 23 -20 3 0 -3 9 -13 20 -10 11 -20 20 -23
20 -3 0 3 -9 13 -20z" />
    <path d="M5876 6207 c3 -10 9 -15 12 -12 3 3 0 11 -7 18 l-12 12 7 -18z" />
    <path d="M6400 6110 c0 -7 3 -10 7 -7 3 4 3 10 0 14 -4 3 -7 0 -7 -7z" />
    <path d="M2395 6070 c3 -5 8 -10 11 -10 3 0 2 5 -1 10 -3 6 -8 10 -11 10 -3 0
-2 -4 1 -10z" />
    <path d="M5990 6010 c0 -7 3 -10 7 -7 3 4 3 10 0 14 -4 3 -7 0 -7 -7z" />
    <path d="M6000 5986 c0 -11 30 -66 36 -66 2 0 -3 15 -12 33 -19 36 -24 44 -24
33z" />
    <path d="M1753 5973 c4 -3 10 -3 14 0 3 4 0 7 -7 7 -7 0 -10 -3 -7 -7z" />
    <path d="M988 5963 c34 -2 90 -2 125 0 34 2 6 3 -63 3 -69 0 -97 -1 -62 -3z" />
    <path d="M1663 5963 c4 -3 10 -3 14 0 3 4 0 7 -7 7 -7 0 -10 -3 -7 -7z" />
    <path d="M1980 5896 c0 -2 7 -7 16 -10 l15 -6 -6 10 c-6 10 -25 14 -25 6z" />
    <path d="M2510 5880 c0 -7 3 -10 7 -7 3 4 3 10 0 14 -4 3 -7 0 -7 -7z" />
    <path d="M2075 5820 c3 -5 8 -10 11 -10 3 0 2 5 -1 10 -3 6 -8 10 -11 10 -3 0
-2 -4 1 -10z" />
    <path d="M6070 5800 c0 -7 3 -10 7 -7 3 4 3 10 0 14 -4 3 -7 0 -7 -7z" />
    <path d="M6090 5730 c0 -7 3 -10 7 -7 3 4 3 10 0 14 -4 3 -7 0 -7 -7z" />
    <path d="M6100 5700 c0 -7 3 -10 7 -7 3 4 3 10 0 14 -4 3 -7 0 -7 -7z" />
    <path d="M6120 5620 c0 -7 3 -10 7 -7 3 4 3 10 0 14 -4 3 -7 0 -7 -7z" />
    <path d="M6550 5610 c0 -7 3 -10 7 -7 3 4 3 10 0 14 -4 3 -7 0 -7 -7z" />
    <path d="M1843 5603 c26 -2 67 -2 90 0 23 2 2 3 -48 3 -49 0 -68 -1 -42 -3z" />
    <path d="M2023 5603 c15 -2 37 -2 50 0 12 2 0 4 -28 4 -27 0 -38 -2 -22 -4z" />
    <path d="M973 5593 c4 -3 10 -3 14 0 3 4 0 7 -7 7 -7 0 -10 -3 -7 -7z" />
    <path d="M6151 5454 l1 -19 5 13 c3 7 2 16 -1 19 -3 4 -6 -2 -5 -13z" />
    <path d="M6162 5380 c0 -14 2 -19 5 -12 2 6 2 18 0 25 -3 6 -5 1 -5 -13z" />
    <path d="M6580 5390 c0 -7 3 -10 7 -7 3 4 3 10 0 14 -4 3 -7 0 -7 -7z" />
    <path d="M830 5360 c0 -7 3 -10 7 -7 3 4 3 10 0 14 -4 3 -7 0 -7 -7z" />
    <path d="M6172 5300 c0 -14 2 -19 5 -12 2 6 2 18 0 25 -3 6 -5 1 -5 -13z" />
    <path d="M6592 5255 l0 -30 5 18 c2 9 2 23 0 30 -3 6 -5 -1 -5 -18z" />
    <path d="M895 5250 c3 -5 8 -10 11 -10 3 0 2 5 -1 10 -3 6 -8 10 -11 10 -3 0
-2 -4 1 -10z" />
    <path d="M6170 5250 c0 -7 3 -10 7 -7 3 4 3 10 0 14 -4 3 -7 0 -7 -7z" />
    <path d="M983 5203 c4 -3 10 -3 14 0 3 4 0 7 -7 7 -7 0 -10 -3 -7 -7z" />
    <path d="M1112 5194 c-19 -8 -31 -11 -28 -6 l6 9 -32 -3 c-18 -2 -36 -8 -41
-13 l-8 -8 15 -15 c8 -9 13 -17 11 -20 -2 -2 5 -4 16 -5 l19 -2 -6 11 -7 11
12 -7 12 -8 -12 -14 -12 -15 11 3 c6 2 18 -6 27 -17 9 -11 14 -14 10 -7 -11
21 13 13 29 -10 9 -12 16 -19 16 -15 0 5 7 1 16 -8 16 -15 36 -17 35 -2 -1 4
-1 41 -1 82 l0 75 -27 -1 c-16 0 -43 -7 -61 -15z" />
    <path d="M2030 5200 c0 -7 3 -10 7 -7 3 4 3 10 0 14 -4 3 -7 0 -7 -7z" />
    <path d="M763 5193 c4 -3 10 -3 14 0 3 4 0 7 -7 7 -7 0 -10 -3 -7 -7z" />
    <path d="M1934 5108 l-7 -11 11 7 c12 7 16 16 8 16 -3 0 -8 -5 -12 -12z" />
    <path d="M6171 5024 l1 -19 5 13 c3 7 2 16 -1 19 -3 4 -6 -2 -5 -13z" />
    <path d="M6592 4995 l0 -30 5 18 c2 9 2 23 0 30 -3 6 -5 -1 -5 -18z" />
    <path d="M1468 4993 c6 -2 18 -2 25 0 6 3 1 5 -13 5 -14 0 -19 -2 -12 -5z" />
    <path d="M1603 4993 c4 -3 10 -3 14 0 3 4 0 7 -7 7 -7 0 -10 -3 -7 -7z" />
    <path d="M5188 4973 c6 -2 18 -2 25 0 6 3 1 5 -13 5 -14 0 -19 -2 -12 -5z" />
    <path d="M6160 4890 c0 -7 3 -10 7 -7 3 4 3 10 0 14 -4 3 -7 0 -7 -7z" />
    <path d="M4654 4858 l-7 -11 11 7 c12 7 16 16 8 16 -3 0 -8 -5 -12 -12z" />
    <path d="M6580 4860 c0 -7 3 -10 7 -7 3 4 3 10 0 14 -4 3 -7 0 -7 -7z" />
    <path d="M6152 4830 c0 -14 2 -19 5 -12 2 6 2 18 0 25 -3 6 -5 1 -5 -13z" />
    <path d="M735 4830 c3 -5 8 -10 11 -10 3 0 2 5 -1 10 -3 6 -8 10 -11 10 -3 0
-2 -4 1 -10z" />
    <path d="M5615 4820 c3 -5 8 -10 11 -10 3 0 2 5 -1 10 -3 6 -8 10 -11 10 -3 0
-2 -4 1 -10z" />
    <path d="M775 4800 c3 -5 8 -10 11 -10 3 0 2 5 -1 10 -3 6 -8 10 -11 10 -3 0
-2 -4 1 -10z" />
    <path d="M6141 4764 l1 -19 5 13 c3 7 2 16 -1 19 -3 4 -6 -2 -5 -13z" />
    <path d="M6570 4770 c0 -7 3 -10 7 -7 3 4 3 10 0 14 -4 3 -7 0 -7 -7z" />
    <path d="M6130 4710 c0 -7 3 -10 7 -7 3 4 3 10 0 14 -4 3 -7 0 -7 -7z" />
    <path d="M6560 4710 c0 -7 3 -10 7 -7 3 4 3 10 0 14 -4 3 -7 0 -7 -7z" />
    <path d="M6120 4670 c0 -7 3 -10 7 -7 3 4 3 10 0 14 -4 3 -7 0 -7 -7z" />
    <path d="M6111 4634 l1 -19 5 13 c3 7 2 16 -1 19 -3 4 -6 -2 -5 -13z" />
    <path d="M5855 4630 c3 -5 8 -10 11 -10 3 0 2 5 -1 10 -3 6 -8 10 -11 10 -3 0
-2 -4 1 -10z" />
    <path d="M992 4585 l0 -30 5 18 c2 9 2 23 0 30 -3 6 -5 -1 -5 -18z" />
    <path d="M6101 4594 l1 -19 5 13 c3 7 2 16 -1 19 -3 4 -6 -2 -5 -13z" />
    <path d="M1723 4583 c4 -3 10 -3 14 0 3 4 0 7 -7 7 -7 0 -10 -3 -7 -7z" />
    <path d="M1400 4570 c0 -7 3 -10 7 -7 3 4 3 10 0 14 -4 3 -7 0 -7 -7z" />
    <path d="M6090 4550 c0 -7 3 -10 7 -7 3 4 3 10 0 14 -4 3 -7 0 -7 -7z" />
    <path d="M5133 4543 c4 -3 10 -3 14 0 3 4 0 7 -7 7 -7 0 -10 -3 -7 -7z" />
    <path d="M1402 4420 c0 -14 2 -19 5 -12 2 6 2 18 0 25 -3 6 -5 1 -5 -13z" />
    <path d="M5425 4430 c3 -5 8 -10 11 -10 3 0 2 5 -1 10 -3 6 -8 10 -11 10 -3 0
-2 -4 1 -10z" />
    <path d="M5455 4410 c3 -5 8 -10 11 -10 3 0 2 5 -1 10 -3 6 -8 10 -11 10 -3 0
-2 -4 1 -10z" />
    <path d="M6490 4390 c0 -7 3 -10 7 -7 3 4 3 10 0 14 -4 3 -7 0 -7 -7z" />
    <path d="M7008 4363 c6 -2 18 -2 25 0 6 3 1 5 -13 5 -14 0 -19 -2 -12 -5z" />
    <path d="M992 4310 c0 -19 2 -27 5 -17 2 9 2 25 0 35 -3 9 -5 1 -5 -18z" />
    <path d="M5575 4320 c3 -5 8 -10 11 -10 3 0 2 5 -1 10 -3 6 -8 10 -11 10 -3 0
-2 -4 1 -10z" />
    <path d="M4256 4285 c-3 -9 -6 -22 -5 -28 0 -7 5 -1 10 12 5 13 8 26 5 28 -2
2 -6 -3 -10 -12z" />
    <path d="M5611 4287 c2 -1 13 -9 24 -17 l20 -15 -14 18 c-7 9 -18 17 -24 17
-6 0 -8 -1 -6 -3z" />
    <path d="M3603 4273 c4 -3 10 -3 14 0 3 4 0 7 -7 7 -7 0 -10 -3 -7 -7z" />
    <path d="M5660 4246 c0 -2 8 -10 18 -17 l17 -14 -14 18 c-13 16 -21 21 -21 13z" />
    <path d="M4241 4224 l1 -19 5 13 c3 7 2 16 -1 19 -3 4 -6 -2 -5 -13z" />
    <path d="M1001 4214 l1 -19 5 13 c3 7 2 16 -1 19 -3 4 -6 -2 -5 -13z" />
    <path d="M1421 4204 l1 -19 5 13 c3 7 2 16 -1 19 -3 4 -6 -2 -5 -13z" />
    <path d="M3393 4203 c4 -3 10 -3 14 0 3 4 0 7 -7 7 -7 0 -10 -3 -7 -7z" />
    <path d="M5725 4161 c20 -28 39 -51 41 -51 7 0 -55 88 -67 96 -6 3 6 -17 26
-45z" />
    <path d="M4232 4180 c0 -14 2 -19 5 -12 2 6 2 18 0 25 -3 6 -5 1 -5 -13z" />
    <path d="M4221 4114 l1 -19 5 13 c3 7 2 16 -1 19 -3 4 -6 -2 -5 -13z" />
    <path d="M1020 4090 c0 -7 3 -10 7 -7 3 4 3 10 0 14 -4 3 -7 0 -7 -7z" />
    <path d="M5801 4050 c14 -31 19 -36 19 -24 0 6 -7 19 -16 30 l-15 19 12 -25z" />
    <path d="M4212 4030 c0 -14 2 -19 5 -12 2 6 2 18 0 25 -3 6 -5 1 -5 -13z" />
    <path d="M6684 4008 l-7 -11 11 7 c12 7 16 16 8 16 -3 0 -8 -5 -12 -12z" />
    <path d="M5827 3990 c3 -11 9 -22 13 -25 5 -3 6 4 3 15 -3 11 -9 22 -13 25 -5
3 -6 -4 -3 -15z" />
    <path d="M5850 3940 c0 -7 3 -10 7 -7 3 4 3 10 0 14 -4 3 -7 0 -7 -7z" />
    <path d="M6614 3918 l-7 -11 11 7 c7 4 12 9 12 12 0 8 -9 4 -16 -8z" />
    <path d="M5870 3890 c0 -7 3 -10 7 -7 3 4 3 10 0 14 -4 3 -7 0 -7 -7z" />
    <path d="M6290 3890 c0 -7 3 -10 7 -7 3 4 3 10 0 14 -4 3 -7 0 -7 -7z" />
    <path d="M3803 3883 c4 -3 10 -3 14 0 3 4 0 7 -7 7 -7 0 -10 -3 -7 -7z" />
    <path d="M3763 3873 c4 -3 10 -3 14 0 3 4 0 7 -7 7 -7 0 -10 -3 -7 -7z" />
    <path d="M3733 3863 c4 -3 10 -3 14 0 3 4 0 7 -7 7 -7 0 -10 -3 -7 -7z" />
    <path d="M5880 3850 c0 -7 3 -10 7 -7 3 4 3 10 0 14 -4 3 -7 0 -7 -7z" />
    <path d="M6544 3838 l-7 -11 11 7 c7 4 12 9 12 12 0 8 -9 4 -16 -8z" />
    <path d="M5892 3785 l0 -30 5 18 c2 9 2 23 0 30 -3 6 -5 -1 -5 -18z" />
    <path d="M6459 3753 l-14 -18 18 14 c9 7 17 15 17 17 0 8 -8 3 -21 -13z" />
    <path d="M6330 3730 c0 -7 3 -10 7 -7 3 4 3 10 0 14 -4 3 -7 0 -7 -7z" />
    <path d="M5902 3690 c0 -14 2 -19 5 -12 2 6 2 18 0 25 -3 6 -5 1 -5 -13z" />
    <path d="M7350 3700 c0 -7 3 -10 7 -7 3 4 3 10 0 14 -4 3 -7 0 -7 -7z" />
    <path d="M4222 3660 c0 -14 2 -19 5 -12 2 6 2 18 0 25 -3 6 -5 1 -5 -13z" />
    <path d="M5892 3630 c0 -14 2 -19 5 -12 2 6 2 18 0 25 -3 6 -5 1 -5 -13z" />
    <path d="M4230 3600 c0 -7 3 -10 7 -7 3 4 3 10 0 14 -4 3 -7 0 -7 -7z" />
    <path d="M5853 3529 c-17 -38 -29 -69 -27 -69 7 0 67 130 63 135 -3 2 -18 -28
-36 -66z" />
    <path d="M6910 3590 c0 -8 5 -22 10 -30 l10 -15 0 15 c0 8 -5 22 -10 30 l-10
15 0 -15z" />
    <path d="M7370 3570 c0 -7 3 -10 7 -7 3 4 3 10 0 14 -4 3 -7 0 -7 -7z" />
    <path d="M6931 3524 l1 -19 5 13 c3 7 2 16 -1 19 -3 4 -6 -2 -5 -13z" />
    <path d="M4260 3480 c0 -7 3 -10 7 -7 3 4 3 10 0 14 -4 3 -7 0 -7 -7z" />
    <path d="M7381 3464 l1 -19 5 13 c3 7 2 16 -1 19 -3 4 -6 -2 -5 -13z" />
    <path d="M6942 3445 l0 -30 5 18 c2 9 2 23 0 30 -3 6 -5 -1 -5 -18z" />
    <path d="M5766 3391 l-30 -36 34 32 c19 18 32 34 29 36 -2 2 -17 -12 -33 -32z" />
    <path d="M4760 3400 c6 -11 13 -20 16 -20 2 0 0 9 -6 20 -6 11 -13 20 -16 20
-2 0 0 -9 6 -20z" />
    <path d="M3220 3390 c0 -7 3 -10 7 -7 3 4 3 10 0 14 -4 3 -7 0 -7 -7z" />
    <path d="M1700 3340 c6 -11 13 -20 16 -20 2 0 0 9 -6 20 -6 11 -13 20 -16 20
-2 0 0 -9 6 -20z" />
    <path d="M4795 3350 c3 -5 8 -10 11 -10 3 0 2 5 -1 10 -3 6 -8 10 -11 10 -3 0
-2 -4 1 -10z" />
    <path d="M4300 3340 c0 -7 3 -10 7 -7 3 4 3 10 0 14 -4 3 -7 0 -7 -7z" />
    <path d="M4815 3320 c3 -5 8 -10 11 -10 3 0 2 5 -1 10 -3 6 -8 10 -11 10 -3 0
-2 -4 1 -10z" />
    <path d="M5674 3298 l-29 -33 33 29 c17 17 32 31 32 33 0 8 -8 1 -36 -29z" />
    <path d="M4865 3270 c3 -5 8 -10 11 -10 3 0 2 5 -1 10 -3 6 -8 10 -11 10 -3 0
-2 -4 1 -10z" />
    <path d="M5624 3258 l-7 -11 11 7 c7 4 12 9 12 12 0 8 -9 4 -16 -8z" />
    <path d="M4900 3246 c0 -2 8 -10 18 -17 l17 -14 -14 18 c-13 16 -21 21 -21 13z" />
    <path d="M5594 3238 l-7 -11 11 7 c7 4 12 9 12 12 0 8 -9 4 -16 -8z" />
    <path d="M7382 3220 c0 -14 2 -19 5 -12 2 6 2 18 0 25 -3 6 -5 1 -5 -13z" />
    <path d="M1785 3190 c3 -5 8 -10 11 -10 3 0 2 5 -1 10 -3 6 -8 10 -11 10 -3 0
-2 -4 1 -10z" />
    <path d="M6943 3160 c0 -25 2 -35 4 -22 2 12 2 32 0 45 -2 12 -4 2 -4 -23z" />
    <path d="M5450 3170 c-8 -5 -10 -10 -5 -10 6 0 17 5 25 10 8 5 11 10 5 10 -5
0 -17 -5 -25 -10z" />
    <path d="M5053 3153 c4 -3 10 -3 14 0 3 4 0 7 -7 7 -7 0 -10 -3 -7 -7z" />
    <path d="M5133 3133 c4 -3 10 -3 14 0 3 4 0 7 -7 7 -7 0 -10 -3 -7 -7z" />
    <path d="M6931 3084 l1 -19 5 13 c3 7 2 16 -1 19 -3 4 -6 -2 -5 -13z" />
    <path d="M2742 3065 l0 -30 5 18 c2 9 2 23 0 30 -3 6 -5 -1 -5 -18z" />
    <path d="M4430 3081 c0 -6 4 -13 10 -16 l10 -6 -6 15 c-7 18 -14 21 -14 7z" />
    <path d="M4455 3040 c3 -5 8 -10 11 -10 3 0 2 5 -1 10 -3 6 -8 10 -11 10 -3 0
-2 -4 1 -10z" />
    <path d="M1885 3030 c3 -5 8 -10 11 -10 3 0 2 5 -1 10 -3 6 -8 10 -11 10 -3 0
-2 -4 1 -10z" />
    <path d="M6921 3024 l1 -19 5 13 c3 7 2 16 -1 19 -3 4 -6 -2 -5 -13z" />
    <path d="M1905 3000 c3 -5 8 -10 11 -10 3 0 2 5 -1 10 -3 6 -8 10 -11 10 -3 0
-2 -4 1 -10z" />
    <path d="M6910 2990 c0 -7 3 -10 7 -7 3 4 3 10 0 14 -4 3 -7 0 -7 -7z" />
    <path d="M4500 2970 c6 -11 13 -20 16 -20 2 0 0 9 -6 20 -6 11 -13 20 -16 20
-2 0 0 -9 6 -20z" />
    <path d="M1945 2950 c10 -11 20 -20 23 -20 3 0 -3 9 -13 20 -10 11 -20 20 -23
20 -3 0 3 -9 13 -20z" />
    <path d="M6901 2944 l1 -19 5 13 c3 7 2 16 -1 19 -3 4 -6 -2 -5 -13z" />
    <path d="M4540 2924 c0 -6 15 -23 33 -40 l32 -29 -30 35 c-16 19 -31 37 -32
39 -2 2 -3 0 -3 -5z" />
    <path d="M6890 2910 c0 -7 3 -10 7 -7 3 4 3 10 0 14 -4 3 -7 0 -7 -7z" />
    <path d="M1983 2903 c4 -3 10 -3 14 0 3 4 0 7 -7 7 -7 0 -10 -3 -7 -7z" />
    <path d="M7330 2890 c0 -7 3 -10 7 -7 3 4 3 10 0 14 -4 3 -7 0 -7 -7z" />
    <path d="M2010 2883 c0 -5 10 -18 23 -29 l22 -19 -20 25 c-11 14 -21 27 -22
29 -2 2 -3 0 -3 -6z" />
    <path d="M6870 2850 c0 -7 3 -10 7 -7 3 4 3 10 0 14 -4 3 -7 0 -7 -7z" />
    <path d="M4648 2798 c56 -61 162 -164 162 -157 0 2 -48 52 -107 109 -59 58
-84 79 -55 48z" />
    <path d="M2095 2780 c10 -11 20 -20 23 -20 3 0 -3 9 -13 20 -10 11 -20 20 -23
20 -3 0 3 -9 13 -20z" />
    <path d="M6817 2718 c-15 -34 -25 -63 -23 -65 2 -2 15 24 30 58 15 34 25 63
23 65 -2 2 -16 -24 -30 -58z" />
    <path d="M5575 2700 l-6 -10 15 6 c18 7 21 14 7 14 -6 0 -13 -4 -16 -10z" />
    <path d="M1645 2670 c3 -5 8 -10 11 -10 3 0 2 5 -1 10 -3 6 -8 10 -11 10 -3 0
-2 -4 1 -10z" />
    <path d="M2180 2676 c0 -2 8 -10 18 -17 l17 -14 -14 18 c-13 16 -21 21 -21 13z" />
    <path d="M2820 2660 c0 -7 3 -10 7 -7 3 4 3 10 0 14 -4 3 -7 0 -7 -7z" />
    <path d="M2220 2636 c0 -2 8 -10 18 -17 l17 -14 -14 18 c-13 16 -21 21 -21 13z" />
    <path d="M4820 2637 c0 -2 15 -16 33 -33 l32 -29 -29 33 c-28 30 -36 37 -36
29z" />
    <path d="M3305 2620 c3 -5 8 -10 11 -10 3 0 2 5 -1 10 -3 6 -8 10 -11 10 -3 0
-2 -4 1 -10z" />
    <path d="M2840 2611 c0 -6 4 -13 10 -16 l10 -6 -6 15 c-7 18 -14 21 -14 7z" />
    <path d="M6754 2588 c-9 -18 -24 -44 -32 -58 l-14 -25 17 20 c19 23 58 95 50
95 -2 0 -12 -15 -21 -32z" />
    <path d="M2260 2596 c0 -2 8 -10 18 -17 l17 -14 -14 18 c-13 16 -21 21 -21 13z" />
    <path d="M3332 2584 c9 -9 21 -15 27 -13 6 2 -2 10 -17 17 l-27 12 17 -16z" />
    <path d="M1710 2586 c0 -2 8 -10 18 -17 l17 -14 -14 18 c-13 16 -21 21 -21 13z" />
    <path d="M4890 2576 c0 -2 8 -10 18 -17 l17 -14 -14 18 c-13 16 -21 21 -21 13z" />
    <path d="M3478 2563 c7 -3 16 -2 19 1 4 3 -2 6 -13 5 l-19 -1 13 -5z" />
    <path d="M2300 2556 c0 -2 8 -10 18 -17 l17 -14 -14 18 c-13 16 -21 21 -21 13z" />
    <path d="M2885 2530 c9 -16 18 -30 21 -30 2 0 -2 14 -11 30 -9 17 -18 30 -21
30 -2 0 2 -13 11 -30z" />
    <path d="M1775 2510 c3 -5 8 -10 11 -10 3 0 2 5 -1 10 -3 6 -8 10 -11 10 -3 0
-2 -4 1 -10z" />
    <path d="M5015 2480 c3 -5 8 -10 11 -10 3 0 2 5 -1 10 -3 6 -8 10 -11 10 -3 0
-2 -4 1 -10z" />
    <path d="M6680 2473 c0 -6 -17 -32 -37 -59 l-37 -49 23 19 c28 25 65 85 57 93
-3 4 -6 2 -6 -4z" />
    <path d="M5045 2460 c3 -5 8 -10 11 -10 3 0 2 5 -1 10 -3 6 -8 10 -11 10 -3 0
-2 -4 1 -10z" />
    <path d="M2940 2443 c0 -5 10 -18 23 -29 l22 -19 -20 25 c-11 14 -21 27 -22
29 -2 2 -3 0 -3 -6z" />
    <path d="M1850 2427 c0 -2 15 -16 33 -33 l32 -29 -29 33 c-28 30 -36 37 -36
29z" />
    <path d="M3040 2318 c41 -45 50 -53 50 -45 0 2 -21 23 -47 47 l-48 45 45 -47z" />
    <path d="M6569 2323 l-34 -38 38 34 c34 33 42 41 34 41 -2 0 -19 -17 -38 -37z" />
    <path d="M5338 2323 c7 -3 16 -2 19 1 4 3 -2 6 -13 5 l-19 -1 13 -5z" />
    <path d="M5428 2323 c7 -3 16 -2 19 1 4 3 -2 6 -13 5 l-19 -1 13 -5z" />
    <path d="M2580 2316 c0 -2 8 -10 18 -17 l17 -14 -14 18 c-13 16 -21 21 -21 13z" />
    <path d="M6508 2256 c-15 -14 -42 -42 -59 -63 l-33 -38 62 60 c56 54 67 66 60
65 -2 0 -15 -11 -30 -24z" />
    <path d="M6389 2143 l-14 -18 18 14 c9 7 17 15 17 17 0 8 -8 3 -21 -13z" />
    <path d="M2145 2140 c3 -5 8 -10 11 -10 3 0 2 5 -1 10 -3 6 -8 10 -11 10 -3 0
-2 -4 1 -10z" />
    <path d="M2810 2146 c0 -2 7 -7 16 -10 l15 -6 -6 10 c-6 10 -25 14 -25 6z" />
    <path d="M3263 2113 c9 -2 23 -2 30 0 6 3 -1 5 -18 5 l-30 0 18 -5z" />
    <path d="M6330 2089 l-35 -31 32 22 c18 11 35 25 38 30 10 16 2 11 -35 -21z" />
    <path d="M6934 2098 l-19 -23 23 19 c21 18 27 26 19 26 -2 0 -12 -10 -23 -22z" />
    <path d="M3340 2106 c0 -2 8 -10 18 -17 l17 -14 -14 18 c-13 16 -21 21 -21 13z" />
    <path d="M3775 2090 c3 -5 8 -10 11 -10 3 0 2 5 -1 10 -3 6 -8 10 -11 10 -3 0
-2 -4 1 -10z" />
    <path d="M3805 2050 c3 -5 8 -10 11 -10 3 0 2 5 -1 10 -3 6 -8 10 -11 10 -3 0
-2 -4 1 -10z" />
    <path d="M6230 2009 c-79 -59 -86 -70 -12 -19 55 38 81 60 70 60 -2 0 -28 -18
-58 -41z" />
    <path d="M6874 2028 l-7 -11 11 7 c7 4 12 9 12 12 0 8 -9 4 -16 -8z" />
    <path d="M2285 2020 c3 -5 8 -10 11 -10 3 0 2 5 -1 10 -3 6 -8 10 -11 10 -3 0
-2 -4 1 -10z" />
    <path d="M3865 1980 c10 -11 20 -20 23 -20 3 0 -3 9 -13 20 -10 11 -20 20 -23
20 -3 0 3 -9 13 -20z" />
    <path d="M6094 1918 l-7 -11 11 7 c12 7 16 16 8 16 -3 0 -8 -5 -12 -12z" />
    <path d="M6047 1891 c-41 -26 -46 -36 -10 -17 17 9 35 20 38 26 8 13 6 12 -28
-9z" />
    <path d="M3283 1893 c4 -3 10 -3 14 0 3 4 0 7 -7 7 -7 0 -10 -3 -7 -7z" />
    <path d="M4005 1890 c3 -5 8 -10 11 -10 3 0 2 5 -1 10 -3 6 -8 10 -11 10 -3 0
-2 -4 1 -10z" />
    <path d="M3665 1880 c3 -5 8 -10 11 -10 3 0 2 5 -1 10 -3 6 -8 10 -11 10 -3 0
-2 -4 1 -10z" />
    <path d="M5930 1830 l-15 -10 12 0 c6 0 15 5 18 10 8 12 4 12 -15 0z" />
    <path d="M3763 1823 c4 -3 10 -3 14 0 3 4 0 7 -7 7 -7 0 -10 -3 -7 -7z" />
    <path d="M6644 1798 l-19 -23 23 19 c21 18 27 26 19 26 -2 0 -12 -10 -23 -22z" />
    <path d="M2595 1800 c3 -5 8 -10 11 -10 3 0 2 5 -1 10 -3 6 -8 10 -11 10 -3 0
-2 -4 1 -10z" />
    <path d="M5763 1753 c4 -3 10 -3 14 0 3 4 0 7 -7 7 -7 0 -10 -3 -7 -7z" />
    <path d="M6584 1748 l-7 -11 11 7 c12 7 16 16 8 16 -3 0 -8 -5 -12 -12z" />
    <path d="M5660 1720 c-18 -12 -2 -12 25 0 l20 9 -15 0 c-8 0 -22 -4 -30 -9z" />
    <path d="M3940 1712 c0 -8 59 -36 65 -31 1 2 -12 12 -31 21 -19 10 -34 14 -34
10z" />
    <path d="M6534 1708 l-7 -11 11 7 c12 7 16 16 8 16 -3 0 -8 -5 -12 -12z" />
    <path d="M4378 1703 c7 -3 16 -2 19 1 4 3 -2 6 -13 5 l-19 -1 13 -5z" />
    <path d="M5623 1703 c4 -3 10 -3 14 0 3 4 0 7 -7 7 -7 0 -10 -3 -7 -7z" />
    <path d="M5543 1683 c4 -3 10 -3 14 0 3 4 0 7 -7 7 -7 0 -10 -3 -7 -7z" />
    <path d="M5503 1673 c4 -3 10 -3 14 0 3 4 0 7 -7 7 -7 0 -10 -3 -7 -7z" />
    <path d="M5458 1663 c7 -3 16 -2 19 1 4 3 -2 6 -13 5 l-19 -1 13 -5z" />
    <path d="M5418 1653 c7 -3 16 -2 19 1 4 3 -2 6 -13 5 l-19 -1 13 -5z" />
    <path d="M6444 1638 l-7 -11 11 7 c12 7 16 16 8 16 -3 0 -8 -5 -12 -12z" />
    <path d="M5248 1623 c7 -3 16 -2 19 1 4 3 -2 6 -13 5 l-19 -1 13 -5z" />
    <path d="M4823 1613 c9 -2 25 -2 35 0 9 3 1 5 -18 5 -19 0 -27 -2 -17 -5z" />
    <path d="M6404 1608 l-7 -11 11 7 c12 7 16 16 8 16 -3 0 -8 -5 -12 -12z" />
    <path d="M3743 1313 c4 -3 10 -3 14 0 3 4 0 7 -7 7 -7 0 -10 -3 -7 -7z" />
    <path d="M3793 1303 c4 -3 10 -3 14 0 3 4 0 7 -7 7 -7 0 -10 -3 -7 -7z" />
    <path d="M3843 1293 c4 -3 10 -3 14 0 3 4 0 7 -7 7 -7 0 -10 -3 -7 -7z" />
    <path d="M3903 1283 c4 -3 10 -3 14 0 3 4 0 7 -7 7 -7 0 -10 -3 -7 -7z" />
    <path d="M3963 1273 c4 -3 10 -3 14 0 3 4 0 7 -7 7 -7 0 -10 -3 -7 -7z" />
    <path d="M4033 1263 c4 -3 10 -3 14 0 3 4 0 7 -7 7 -7 0 -10 -3 -7 -7z" />
    <path d="M4103 1253 c4 -3 10 -3 14 0 3 4 0 7 -7 7 -7 0 -10 -3 -7 -7z" />
    <path d="M5583 1253 c4 -3 10 -3 14 0 3 4 0 7 -7 7 -7 0 -10 -3 -7 -7z" />
    <path d="M4203 1243 c4 -3 10 -3 14 0 3 4 0 7 -7 7 -7 0 -10 -3 -7 -7z" />
    <path d="M5533 1243 c4 -3 10 -3 14 0 3 4 0 7 -7 7 -7 0 -10 -3 -7 -7z" />
    <path d="M4303 1233 c4 -3 10 -3 14 0 3 4 0 7 -7 7 -7 0 -10 -3 -7 -7z" />
    <path d="M5483 1233 c4 -3 10 -3 14 0 3 4 0 7 -7 7 -7 0 -10 -3 -7 -7z" />
    <path d="M4363 1223 c4 -3 10 -3 14 0 3 4 0 7 -7 7 -7 0 -10 -3 -7 -7z" />
    <path d="M5423 1223 c4 -3 10 -3 14 0 3 4 0 7 -7 7 -7 0 -10 -3 -7 -7z" />
    <path d="M4423 1213 c9 -2 23 -2 30 0 6 3 -1 5 -18 5 l-30 0 18 -5z" />
    <path d="M5363 1213 c4 -3 10 -3 14 0 3 4 0 7 -7 7 -7 0 -10 -3 -7 -7z" />
    <path d="M5293 1203 c4 -3 10 -3 14 0 3 4 0 7 -7 7 -7 0 -10 -3 -7 -7z" />
    <path d="M4455 855 c0 -192 1 -270 2 -172 2 98 2 256 0 350 -1 95 -3 15 -2
-178z" />
    <path d="M4844 960 c0 -135 2 -190 3 -122 2 67 2 177 0 245 -1 67 -3 12 -3
-123z" />
    <path d="M4908 1193 c7 -3 16 -2 19 1 4 3 -2 6 -13 5 l-19 -1 13 -5z" />
    <path d="M5213 1193 c4 -3 10 -3 14 0 3 4 0 7 -7 7 -7 0 -10 -3 -7 -7z" />
    <path d="M6273 493 c4 -3 10 -3 14 0 3 4 0 7 -7 7 -7 0 -10 -3 -7 -7z" />
    <path d="M6375 440 c10 -11 20 -20 23 -20 3 0 -3 9 -13 20 -10 11 -20 20 -23
20 -3 0 3 -9 13 -20z" />
    <path d="M1854 428 l-7 -11 11 7 c12 7 16 16 8 16 -3 0 -8 -5 -12 -12z" />
    <path d="M1812 300 c0 -19 2 -27 5 -17 2 9 2 25 0 35 -3 9 -5 1 -5 -18z" />
    <path d="M1845 190 c3 -5 8 -10 11 -10 3 0 2 5 -1 10 -3 6 -8 10 -11 10 -3 0
-2 -4 1 -10z" />
    <path d="M6243 103 c4 -3 10 -3 14 0 3 4 0 7 -7 7 -7 0 -10 -3 -7 -7z" />
  </g>
</svg>